<svg width="26" height="26" viewBox="0 0 26 26" fill="none" xmlns="http://www.w3.org/2000/svg">
<path d="M0 13C0 15.5712 0.762437 18.0846 2.1909 20.2224C3.61935 22.3602 5.64968 24.0265 8.02512 25.0104C10.4006 25.9944 13.0144 26.2518 15.5362 25.7502C18.0579 25.2486 20.3743 24.0105 22.1924 22.1924C24.0105 20.3743 25.2486 18.0579 25.7502 15.5362C26.2518 13.0144 25.9944 10.4005 25.0104 8.02511C24.0265 5.64967 22.3603 3.61935 20.2224 2.19089C18.0846 0.762431 15.5712 -5.72205e-06 13 -5.72205e-06C9.5533 0.00363405 6.24882 1.37444 3.81163 3.81163C1.37445 6.24881 0.00363977 9.5533 0 13ZM24 13C24 15.1756 23.3549 17.3023 22.1462 19.1113C20.9375 20.9202 19.2195 22.3301 17.2095 23.1627C15.1995 23.9952 12.9878 24.2131 10.854 23.7886C8.72022 23.3642 6.7602 22.3165 5.22183 20.7782C3.68345 19.2398 2.6358 17.2798 2.21136 15.146C1.78692 13.0122 2.00476 10.8005 2.83733 8.79048C3.66989 6.78049 5.07979 5.06252 6.88873 3.85383C8.69767 2.64513 10.8244 1.99999 13 1.99999C15.9164 2.0033 18.7123 3.16329 20.7745 5.22547C22.8367 7.28766 23.9967 10.0836 24 13ZM11.2925 8.29249C11.3854 8.19958 11.4957 8.12588 11.6171 8.0756C11.7385 8.02532 11.8686 7.99944 12 7.99944C12.1314 7.99944 12.2615 8.02532 12.3829 8.0756C12.5043 8.12588 12.6146 8.19958 12.7075 8.29249C12.8004 8.3854 12.8741 8.4957 12.9244 8.6171C12.9747 8.73849 13.0006 8.8686 13.0006 8.99999C13.0006 9.13139 12.9747 9.2615 12.9244 9.38289C12.8741 9.50428 12.8004 9.61458 12.7075 9.70749L10.4137 12H18C18.2652 12 18.5196 12.1054 18.7071 12.2929C18.8946 12.4804 19 12.7348 19 13C19 13.2652 18.8946 13.5196 18.7071 13.7071C18.5196 13.8946 18.2652 14 18 14H10.4137L12.7075 16.2925C12.8951 16.4801 13.0006 16.7346 13.0006 17C13.0006 17.2654 12.8951 17.5199 12.7075 17.7075C12.5199 17.8951 12.2654 18.0006 12 18.0006C11.7346 18.0006 11.4801 17.8951 11.2925 17.7075L7.2925 13.7075C7.19952 13.6146 7.12576 13.5043 7.07544 13.3829C7.02512 13.2615 6.99921 13.1314 6.99921 13C6.99921 12.8686 7.02512 12.7385 7.07544 12.6171C7.12576 12.4957 7.19952 12.3854 7.2925 12.2925L11.2925 8.29249Z" fill="black"/>
</svg>
