<svg width="32" height="31" viewBox="0 0 32 31" fill="none" xmlns="http://www.w3.org/2000/svg">
<rect x="32.0007" y="30.0011" width="32.0008" height="30.0011" rx="15.0006" transform="rotate(-180 32.0007 30.0011)" fill="white"/>
<path d="M14.2933 10.2931C14.3862 10.2002 14.4965 10.1265 14.6179 10.0762C14.7393 10.0259 14.8694 10 15.0008 10C15.1322 10 15.2623 10.0259 15.3837 10.0762C15.5051 10.1265 15.6154 10.2002 15.7083 10.2931C15.8012 10.386 15.8749 10.4963 15.9252 10.6177C15.9755 10.7391 16.0013 10.8692 16.0013 11.0006C16.0013 11.132 15.9755 11.2621 15.9252 11.3835C15.8749 11.5049 15.8012 11.6152 15.7083 11.7081L13.4145 14.0006L21.0008 14.0006C21.266 14.0006 21.5204 14.1059 21.7079 14.2935C21.8954 14.481 22.0008 14.7354 22.0008 15.0006C22.0008 15.2658 21.8954 15.5201 21.7079 15.7077C21.5204 15.8952 21.266 16.0006 21.0008 16.0006L13.4145 16.0006L15.7083 18.2931C15.8959 18.4807 16.0013 18.7352 16.0013 19.0006C16.0013 19.2659 15.8959 19.5204 15.7083 19.7081C15.5206 19.8957 15.2662 20.0011 15.0008 20.0011C14.7354 20.0011 14.4809 19.8957 14.2933 19.7081L10.2933 15.7081C10.2003 15.6152 10.1266 15.5049 10.0762 15.3835C10.0259 15.2621 10 15.132 10 15.0006C10 14.8692 10.0259 14.739 10.0762 14.6176C10.1266 14.4962 10.2003 14.3859 10.2933 14.2931L14.2933 10.2931Z" fill="black"/>
</svg>
