<svg width="30" height="30" viewBox="0 0 30 30" fill="none" xmlns="http://www.w3.org/2000/svg">
<rect width="30" height="30" rx="11" fill="#CBEAFB" fill-opacity="0.25"/>
<path d="M20 10.8333V19.1667C20 19.3877 19.9042 19.5996 19.7337 19.7559C19.5632 19.9122 19.332 20 19.0909 20H16.8182C16.5771 20 16.3458 19.9122 16.1754 19.7559C16.0049 19.5996 15.9091 19.3877 15.9091 19.1667V10.8333C15.9091 10.6123 16.0049 10.4004 16.1754 10.2441C16.3458 10.0878 16.5771 10 16.8182 10H19.0909C19.332 10 19.5632 10.0878 19.7337 10.2441C19.9042 10.4004 20 10.6123 20 10.8333ZM13.1818 10H10.9091C10.668 10 10.4368 10.0878 10.2663 10.2441C10.0958 10.4004 10 10.6123 10 10.8333V19.1667C10 19.3877 10.0958 19.5996 10.2663 19.7559C10.4368 19.9122 10.668 20 10.9091 20H13.1818C13.4229 20 13.6542 19.9122 13.8246 19.7559C13.9951 19.5996 14.0909 19.3877 14.0909 19.1667V10.8333C14.0909 10.6123 13.9951 10.4004 13.8246 10.2441C13.6542 10.0878 13.4229 10 13.1818 10Z" fill="black"/>
</svg>
