<svg width="30" height="30" viewBox="0 0 30 30" fill="none" xmlns="http://www.w3.org/2000/svg">
<rect width="30" height="30" rx="11" fill="#CBEAFB" fill-opacity="0.25"/>
<path d="M20 15C20.0004 15.1306 19.9608 15.259 19.8851 15.3728C19.8095 15.4867 19.7003 15.582 19.5682 15.6495L11.3818 19.8868C11.2438 19.9583 11.0857 19.9973 10.9239 19.9999C10.7621 20.0024 10.6024 19.9683 10.4614 19.9012C10.3217 19.8351 10.2053 19.7387 10.1242 19.622C10.0431 19.5052 10.0002 19.3722 10 19.2368V10.7632C10.0002 10.6278 10.0431 10.4948 10.1242 10.378C10.2053 10.2613 10.3217 10.1649 10.4614 10.0988C10.6024 10.0317 10.7621 9.9976 10.9239 10.0001C11.0857 10.0027 11.2438 10.0417 11.3818 10.1132L19.5682 14.3505C19.7003 14.418 19.8095 14.5133 19.8851 14.6272C19.9608 14.741 20.0004 14.8694 20 15Z" fill="black"/>
</svg>
