<svg width="32" height="30" viewBox="0 0 32 30" fill="none" xmlns="http://www.w3.org/2000/svg">
<rect width="32.0008" height="30.0011" rx="15.0006" fill="white"/>
<path d="M17.7074 19.7081C17.6145 19.801 17.5042 19.8747 17.3828 19.9249C17.2614 19.9752 17.1313 20.0011 16.9999 20.0011C16.8686 20.0011 16.7384 19.9752 16.617 19.9249C16.4957 19.8747 16.3854 19.801 16.2924 19.7081C16.1995 19.6151 16.1258 19.5048 16.0756 19.3835C16.0253 19.2621 15.9994 19.132 15.9994 19.0006C15.9994 18.8692 16.0253 18.7391 16.0756 18.6177C16.1258 18.4963 16.1995 18.386 16.2924 18.2931L18.5862 16.0006L10.9999 16.0006C10.7347 16.0006 10.4804 15.8952 10.2928 15.7077C10.1053 15.5201 9.99995 15.2658 9.99995 15.0006C9.99995 14.7353 10.1053 14.481 10.2928 14.2934C10.4804 14.1059 10.7347 14.0006 10.9999 14.0006L18.5862 14.0006L16.2924 11.7081C16.1048 11.5204 15.9994 11.2659 15.9994 11.0006C15.9994 10.7352 16.1048 10.4807 16.2924 10.2931C16.4801 10.1054 16.7346 10 16.9999 10C17.2653 10 17.5198 10.1054 17.7074 10.2931L21.7074 14.2931C21.8004 14.3859 21.8742 14.4962 21.9245 14.6176C21.9748 14.739 22.0007 14.8691 22.0007 15.0006C22.0007 15.132 21.9748 15.2621 21.9245 15.3835C21.8742 15.5049 21.8004 15.6152 21.7074 15.7081L17.7074 19.7081Z" fill="black"/>
</svg>
