<svg width="26" height="26" viewBox="0 0 26 26" fill="none" xmlns="http://www.w3.org/2000/svg">
<path d="M26 13C26 10.4288 25.2376 7.91543 23.8091 5.77759C22.3806 3.63975 20.3503 1.97351 17.9749 0.989572C15.5994 0.0056327 12.9856 -0.251811 10.4638 0.249797C7.94207 0.751405 5.62569 1.98953 3.80761 3.80762C1.98953 5.6257 0.7514 7.94208 0.249792 10.4638C-0.251816 12.9856 0.00562668 15.5995 0.989567 17.9749C1.97351 20.3503 3.63975 22.3807 5.77759 23.8091C7.91543 25.2376 10.4288 26 13 26C16.4467 25.9964 19.7512 24.6256 22.1884 22.1884C24.6256 19.7512 25.9964 16.4467 26 13ZM2 13C2 10.8244 2.64514 8.69767 3.85383 6.88873C5.06253 5.07979 6.78049 3.66989 8.79048 2.83733C10.8005 2.00477 13.0122 1.78693 15.146 2.21137C17.2798 2.63581 19.2398 3.68345 20.7782 5.22183C22.3166 6.76021 23.3642 8.72022 23.7886 10.854C24.2131 12.9878 23.9952 15.1995 23.1627 17.2095C22.3301 19.2195 20.9202 20.9375 19.1113 22.1462C17.3023 23.3549 15.1756 24 13 24C10.0836 23.9967 7.28766 22.8367 5.22548 20.7745C3.1633 18.7123 2.00331 15.9164 2 13ZM14.7075 17.7075C14.6146 17.8004 14.5043 17.8741 14.3829 17.9244C14.2615 17.9747 14.1314 18.0006 14 18.0006C13.8686 18.0006 13.7385 17.9747 13.6171 17.9244C13.4957 17.8741 13.3854 17.8004 13.2925 17.7075C13.1996 17.6146 13.1259 17.5043 13.0756 17.3829C13.0253 17.2615 12.9994 17.1314 12.9994 17C12.9994 16.8686 13.0253 16.7385 13.0756 16.6171C13.1259 16.4957 13.1996 16.3854 13.2925 16.2925L15.5863 14H8C7.73478 14 7.48043 13.8946 7.29289 13.7071C7.10536 13.5196 7 13.2652 7 13C7 12.7348 7.10536 12.4804 7.29289 12.2929C7.48043 12.1054 7.73478 12 8 12H15.5863L13.2925 9.70751C13.1049 9.51987 12.9994 9.26537 12.9994 9.00001C12.9994 8.73464 13.1049 8.48015 13.2925 8.29251C13.4801 8.10486 13.7346 7.99945 14 7.99945C14.2654 7.99945 14.5199 8.10486 14.7075 8.29251L18.7075 12.2925C18.8005 12.3854 18.8742 12.4957 18.9246 12.6171C18.9749 12.7385 19.0008 12.8686 19.0008 13C19.0008 13.1314 18.9749 13.2615 18.9246 13.3829C18.8742 13.5043 18.8005 13.6146 18.7075 13.7075L14.7075 17.7075Z" fill="black"/>
</svg>
