<svg width="31" height="28" viewBox="0 0 31 28" fill="none" xmlns="http://www.w3.org/2000/svg">
<rect y="-0.00012207" width="31" height="28" rx="6.17647" fill="#262626"/>
<path d="M7.12617 11.0364C6.82057 10.9222 6.47828 11.077 6.38426 11.3894C5.80557 13.3122 5.88077 15.3792 6.60804 17.2628C7.40645 19.3306 8.93532 21.0339 10.9052 22.0503C12.8751 23.0667 15.1492 23.3255 17.2971 22.7778C19.445 22.2301 21.3176 20.9139 22.5602 19.0784C23.8029 17.2428 24.3294 15.0154 24.0402 12.8177C23.7509 10.6201 22.6659 8.60472 20.9906 7.15326C19.3153 5.7018 17.166 4.91495 14.9495 4.9417C12.9305 4.96606 10.9835 5.66396 9.41319 6.91542C9.15806 7.11875 9.14148 7.49404 9.36099 7.73538V7.73538C9.58051 7.97672 9.95285 7.99244 10.21 7.79162C11.5648 6.73336 13.2339 6.1439 14.9638 6.12302C16.8912 6.09976 18.7602 6.78399 20.217 8.04616C21.6739 9.30833 22.6173 11.0608 22.8689 12.9719C23.1204 14.883 22.6625 16.8199 21.5819 18.4161C20.5013 20.0122 18.873 21.1568 17.0052 21.633C15.1374 22.1093 13.1599 21.8842 11.4469 21.0004C9.73392 20.1166 8.40444 18.6354 7.71015 16.8372C7.08703 15.2234 7.01439 13.4547 7.49371 11.8037C7.58467 11.4904 7.43178 11.1506 7.12617 11.0364V11.0364Z" fill="#FBE4C5"/>
<path d="M10.7353 15.1176H10.373V12.6346H9.86239V12.2887H10.7353V15.1176ZM11.6364 15.5252H11.3975L11.5911 15.1176H11.5828C11.5252 15.1176 11.4799 15.097 11.4387 15.0558C11.3975 15.0146 11.3769 14.9611 11.3769 14.8993C11.3769 14.8334 11.4016 14.7758 11.4511 14.7264C11.5005 14.6811 11.5581 14.6564 11.6322 14.6564C11.6981 14.6564 11.7599 14.6811 11.8093 14.7264C11.8587 14.7758 11.8834 14.8334 11.8834 14.8993C11.8834 14.957 11.8587 15.0352 11.8175 15.134L11.6364 15.5252ZM12.0301 13.244C12.0301 12.964 12.1289 12.7293 12.3265 12.5358C12.5242 12.3423 12.763 12.2434 13.0512 12.2434C13.3436 12.2434 13.5865 12.3423 13.7842 12.5317C13.9777 12.7252 14.0765 12.964 14.0765 13.2481C14.0765 13.4952 13.9695 13.7793 13.7595 14.0964L13.0842 15.1176H12.6477L13.323 14.117C13.2324 14.1746 13.1171 14.1993 12.9854 14.1993C12.7136 14.1993 12.483 14.1087 12.3018 13.9234C12.1207 13.7381 12.0301 13.5117 12.0301 13.244ZM12.3965 13.2276C12.3965 13.4128 12.4583 13.5652 12.586 13.6887C12.7095 13.8123 12.866 13.874 13.0512 13.874C13.2365 13.874 13.393 13.8164 13.5207 13.6928C13.6442 13.5693 13.7101 13.417 13.7101 13.2317C13.7101 13.0505 13.6442 12.8981 13.5207 12.7746C13.393 12.6511 13.2365 12.5852 13.0554 12.5852C12.8701 12.5852 12.7136 12.6511 12.586 12.7746C12.4583 12.8981 12.3965 13.0505 12.3965 13.2276ZM17.1775 12.2352H17.5275V15.1176H17.1775V14.8005C17.1033 14.9117 17.0045 14.9981 16.8769 15.064C16.7492 15.1299 16.6133 15.1628 16.4692 15.1628C16.181 15.1628 15.9422 15.064 15.7527 14.8623C15.5592 14.6646 15.4645 14.4134 15.4645 14.117C15.4645 13.8246 15.5592 13.5776 15.7527 13.3758C15.9463 13.174 16.1851 13.0711 16.4692 13.0711C16.6175 13.0711 16.7533 13.104 16.8769 13.1617C17.0004 13.2234 17.1033 13.3099 17.1775 13.417V12.2352ZM17.198 14.117C17.198 13.9152 17.1322 13.7464 17.0004 13.6064C16.8686 13.4664 16.7039 13.3964 16.5104 13.3964C16.3127 13.3964 16.1522 13.4664 16.0204 13.6064C15.8886 13.7464 15.8227 13.9152 15.8227 14.117C15.8227 14.3228 15.8886 14.4917 16.0204 14.6317C16.1522 14.7717 16.3127 14.8376 16.5104 14.8376C16.7039 14.8376 16.8686 14.7717 17.0004 14.6317C17.1322 14.4917 17.198 14.3228 17.198 14.117ZM18.5362 15.1176H18.1862V12.2352H18.5362V13.4334C18.6062 13.3264 18.705 13.2358 18.8326 13.1699C18.9603 13.104 19.0962 13.0711 19.2444 13.0711C19.5285 13.0711 19.7674 13.174 19.9609 13.3717C20.1503 13.5734 20.2491 13.8205 20.2491 14.117C20.2491 14.4134 20.1503 14.6605 19.9568 14.8623C19.7632 15.064 19.5244 15.1628 19.2444 15.1628C19.0962 15.1628 18.9562 15.134 18.8326 15.0723C18.7091 15.0146 18.6103 14.9281 18.5362 14.817V15.1176ZM19.8909 14.117C19.8909 13.9152 19.825 13.7464 19.6932 13.6064C19.5615 13.4664 19.3968 13.3964 19.2032 13.3964C19.0056 13.3964 18.845 13.4664 18.7132 13.6064C18.5815 13.7464 18.5156 13.9152 18.5156 14.117C18.5156 14.3228 18.5815 14.4917 18.7132 14.6317C18.845 14.7717 19.0056 14.8376 19.2032 14.8376C19.3968 14.8376 19.5615 14.7717 19.6932 14.6317C19.825 14.4917 19.8909 14.3228 19.8909 14.117Z" fill="white"/>
</svg>
